<?xml version="1.0" encoding="UTF-8"?>
<svg id="Laag_1" data-name="Laag 1" xmlns="http://www.w3.org/2000/svg" viewBox="0 0 48.13 47.3">
  <defs>
    <style>
      .cls-1 {
        fill: none;
        stroke: #78909c;
        stroke-linecap: round;
        stroke-miterlimit: 10;
        stroke-width: 2px;
      }

      .cls-2 {
        fill: #f44336;
      }

      .cls-2, .cls-3, .cls-4, .cls-5, .cls-6, .cls-7, .cls-8 {
        stroke-width: 0px;
      }

      .cls-3 {
        fill: #fff;
      }

      .cls-4 {
        fill: #ffdc64;
      }

      .cls-5 {
        fill: #ffc107;
      }

      .cls-6 {
        fill: #ffccbc;
      }

      .cls-7 {
        fill: #ffb446;
      }

      .cls-8 {
        fill: #ffb300;
      }
    </style>
  </defs>
  <path class="cls-1" d="m10.13,38c6.15-3.01,1.89-4.48,7.6-7.6"/>
  <path class="cls-7" d="m20.07,40.23c3.32-3.32,3.32-8.69,0-12.01h0c-3.32-3.32-8.69-3.32-12.01,0s-4.34,7.67-7.79,8.89c0,0,2.12,1.45,5.79-.22,0,0,0,6.67-6.06,9.95,0,0,4.73,2.06,8.71-2.63,3.41-4.02,4.69-3.98,4.69-3.98-3,3-1.99,6.68-1.99,6.68,2.99-4.35,5.66-3.68,8.66-6.68Z"/>
  <path class="cls-4" d="m11.16,28.47c2.5-2.5,6.56-2.7,9.01-.16,2.3,2.4,2.27,5.93-.26,8.08-1.13.96-3.61,1.86-6.61,2.27l-.34-1.38c-2.08,2.14-5.89,3.95-5.89,3.95,2.3-3.62-.61-8.06,4.09-12.76Z"/>
  <path class="cls-3" d="m15.07,36.57c2.34-1.67,3.73-1.73,5-3s1.47-3.86,0-5.34h0c-1.48-1.48-3.89-1.46-5.37.03-3.98,4-3.64,8.31-3.64,8.31,1.67-2.34,3.67-2.33,3.67-2.33-.21,1.04.33,2.34.33,2.34Z"/>
  <polygon class="cls-5" points="45.09 19.76 28.37 3.04 48.13 0 45.09 19.76"/>
  <polygon class="cls-8" points="45.09 19.76 36.86 11.53 48.13 0 45.09 19.76"/>
  <path class="cls-6" d="m21.53,34.2l-7.6-7.6c-.84-.84-.84-2.2,0-3.04L31.41,6.08l10.64,10.64-17.48,17.48c-.84.84-2.2.84-3.04,0Z"/>
  <g>
    <path class="cls-2" d="m13.93,26.6l3.04,3.04,9.12,3.04,3.04-3.04-15.71-5.24c-.25.75-.08,1.6.51,2.2Z"/>
    <polygon class="cls-2" points="31.41 6.08 28.37 9.12 37.49 12.16 31.41 6.08"/>
    <polygon class="cls-2" points="22.29 15.2 38.25 20.52 41.29 17.48 25.33 12.16 22.29 15.2"/>
    <polygon class="cls-2" points="16.21 21.28 32.17 26.6 35.21 23.56 19.25 18.24 16.21 21.28"/>
  </g>
</svg>