<?xml version="1.0" encoding="UTF-8"?>
<svg id="Laag_1" data-name="Laag 1" xmlns="http://www.w3.org/2000/svg" viewBox="0 0 47.61 47.79">
  <defs>
    <style>
      .cls-1 {
        fill: none;
        stroke: #78909c;
        stroke-linecap: round;
        stroke-miterlimit: 10;
        stroke-width: 2px;
      }

      .cls-2 {
        fill: #f44336;
      }

      .cls-2, .cls-3, .cls-4, .cls-5, .cls-6, .cls-7 {
        stroke-width: 0px;
      }

      .cls-3 {
        fill: #fff;
      }

      .cls-4 {
        fill: #ffdc64;
      }

      .cls-5 {
        fill: #ffc107;
      }

      .cls-6 {
        fill: #ffccbc;
      }

      .cls-7 {
        fill: #ffb300;
      }
    </style>
  </defs>
  <path class="cls-1" d="m9.61,38c6.15-3.01,1.89-4.48,7.6-7.6"/>
  <path class="cls-4" d="m8.34,30.78c3.75-3.75,8.89-5.03,11.31-2.46,2.28,2.42,1.34,6.85-2.36,10.18-1.65,1.48-4.98,3.23-8.84,4.51l-.08-1.65c-3.15,3.2-8.37,6.42-8.37,6.42,3.79-5.1,1.27-9.93,8.34-17Z"/>
  <path class="cls-3" d="m10.82,40.3c3.45-2.79,5.26-3.26,7.24-5.24s2.97-5.36,1.49-6.83h0c-1.48-1.48-4.56-.78-6.88,1.54-6.21,6.23-6.98,11.65-6.98,11.65,2.79-3.45,5.35-4.01,5.35-4.01-.56,1.39-.23,2.89-.23,2.89Z"/>
  <polygon class="cls-5" points="44.57 19.76 27.85 3.04 47.61 0 44.57 19.76"/>
  <polygon class="cls-7" points="44.57 19.76 36.35 11.53 47.61 0 44.57 19.76"/>
  <path class="cls-6" d="m21.01,34.2l-7.6-7.6c-.84-.84-.84-2.2,0-3.04L30.89,6.08l10.64,10.64-17.48,17.48c-.84.84-2.2.84-3.04,0Z"/>
  <g>
    <path class="cls-2" d="m13.41,26.6l3.04,3.04,9.12,3.04,3.04-3.04-15.71-5.24c-.25.75-.08,1.6.51,2.2Z"/>
    <polygon class="cls-2" points="30.89 6.08 27.85 9.12 36.97 12.16 30.89 6.08"/>
    <polygon class="cls-2" points="21.77 15.2 37.73 20.52 40.77 17.48 24.81 12.16 21.77 15.2"/>
    <polygon class="cls-2" points="15.69 21.28 31.65 26.6 34.69 23.56 18.73 18.24 15.69 21.28"/>
  </g>
</svg>