<?xml version="1.0" encoding="UTF-8"?>
<svg id="Laag_1" data-name="Laag 1" xmlns="http://www.w3.org/2000/svg" viewBox="0 0 37.91 38.09">
  <defs>
    <style>
      .cls-1 {
        fill: #f44336;
      }

      .cls-1, .cls-2, .cls-3, .cls-4, .cls-5, .cls-6 {
        stroke-width: 0px;
      }

      .cls-2 {
        fill: #fff;
      }

      .cls-3 {
        fill: #ffc107;
      }

      .cls-4 {
        fill: #ffccbc;
      }

      .cls-5 {
        fill: #ffb446;
      }

      .cls-6 {
        fill: #ffb300;
      }
    </style>
  </defs>
  <path class="cls-5" d="m2.05,27.37c1.89-1.89,5.44-1.58,7.9.95,2.32,2.38,2.71,5.49.75,7.07-.87.71-2.95,1.19-5.53,1.2l-.47-1.26c-1.57,1.63-4.7,2.76-4.7,2.76,1.58-2.9-1.51-7.16,2.05-10.72Z"/>
  <path class="cls-2" d="m6.24,35.19c1.92-1.25,3.17-1.17,4.18-2.18s.92-3.31-.55-4.79h0c-1.48-1.48-3.63-1.71-4.81-.53-3.15,3.17-2.41,7.08-2.41,7.08,1.25-1.92,3.05-1.71,3.05-1.71-.08.91.54,2.13.54,2.13Z"/>
  <polygon class="cls-3" points="34.87 19.76 18.15 3.04 37.91 0 34.87 19.76"/>
  <polygon class="cls-6" points="34.87 19.76 26.65 11.53 37.91 0 34.87 19.76"/>
  <path class="cls-4" d="m11.31,34.2l-7.6-7.6c-.84-.84-.84-2.2,0-3.04L21.19,6.08l10.64,10.64-17.48,17.48c-.84.84-2.2.84-3.04,0Z"/>
  <g>
    <path class="cls-1" d="m3.71,26.6l3.04,3.04,9.12,3.04,3.04-3.04-15.71-5.24c-.25.75-.08,1.6.51,2.2Z"/>
    <polygon class="cls-1" points="21.19 6.08 18.15 9.12 27.27 12.16 21.19 6.08"/>
    <polygon class="cls-1" points="12.07 15.2 28.03 20.52 31.07 17.48 15.11 12.16 12.07 15.2"/>
    <polygon class="cls-1" points="5.99 21.28 21.95 26.6 24.99 23.56 9.03 18.24 5.99 21.28"/>
  </g>
</svg>